# xmcd CD database file
#
# Track frame offsets:
#	150
#	16517
#	28878
#	43562
#	60203
#	77774
#	92465
#	107417
#	123219
#	140566
#	153757
#	170994
#	185102
#	206212
#	222599
#	238737
#	255145
#	269650
#
# Disc length: 3839 seconds
#
# Revision: 1
# Processed by: cddbd v1.5.2PL0 Copyright (c) Steve Scherf et al.
# Submitted via: CDex 1.51
#
DISCID=f40efd12
DTITLE=Various Artist - RC95
DYEAR=2006
DGENRE=Country
TTITLE0=Faith Hill - The Lucky One
TTITLE1=Joe Nichols - Size Matters (Someday)
TTITLE2=Shedaisy - I'm Taking The Wheel
TTITLE3=Dierks Bently - Settle For A Slow Down
TTITLE4=Leann Rimes - Something's Gotta Give
TTITLE5=Trent Tomlinson - Drunker Than Me
TTITLE6=Jo Dee Messina - Not Going Down
TTITLE7=Big and Rich - Never Mind Me
TTITLE8=John Corbett - Good To Go
TTITLE9=Jamie O'neal - I Love My Life
TTITLE10=Bon Jovi w/ Jennifer Nettles - Who Says You Can't Go Home
TTITLE11=Jason Aldean - Why
TTITLE12=Garth Brooks and Trish Yearwood - Love Will Always Win
TTITLE13=Jack Ingram - Wherever You Are
TTITLE14=Chris Cagle - Wal-Mart Parking Lot
TTITLE15=Craig Morgan - I Got You
TTITLE16=Cowboy Crush - Hillbilly Nation
TTITLE17=Terri Clark - Damn Right
EXTD=YEAR: 2006
EXTT0=
EXTT1=
EXTT2=
EXTT3=
EXTT4=
EXTT5=
EXTT6=
EXTT7=
EXTT8=
EXTT9=
EXTT10=
EXTT11=
EXTT12=
EXTT13=
EXTT14=
EXTT15=
EXTT16=
EXTT17=
PLAYORDER=
